<svg width="25" height="25" viewBox="0 0 25 25" fill="none" xmlns="http://www.w3.org/2000/svg">
<path fill-rule="evenodd" clip-rule="evenodd" d="M16.6819 9.36364C16.6819 11.6732 14.8096 13.5455 12.5001 13.5455C10.1905 13.5455 8.31824 11.6732 8.31824 9.36364C8.31824 7.05409 10.1905 5.18182 12.5001 5.18182C14.8096 5.18182 16.6819 7.05409 16.6819 9.36364Z" fill="#33571C"/>
<path d="M12.5 0.75C6.01066 0.75 0.75 6.01066 0.75 12.5C0.75 18.9893 6.01066 24.25 12.5 24.25C18.9893 24.25 24.25 18.9893 24.25 12.5C24.25 6.01066 18.9893 0.75 12.5 0.75ZM12.5674 14.3409C9.55309 14.3409 6.86123 15.7219 5.09023 17.8848C3.98992 16.3735 3.34091 14.5128 3.34091 12.5C3.34091 7.44158 7.44158 3.34091 12.5 3.34091C17.5585 3.34091 21.6591 7.44158 21.6591 12.5C21.6591 14.4744 21.0346 16.3023 19.9724 17.7977C18.201 15.6849 15.541 14.3409 12.5674 14.3409Z" fill="#33571C" stroke="#33571C" stroke-width="0.5"/>
</svg>
